PathFileType	4	(X/Y/Z)	Patient4_TMGait_0pt7_02_right_44.trc.trc
DataRate	CameraRate	NumFrames	NumMarkers	Units	OrigDataRate	OrigDataStartFrame	OrigNumFrames
90.322580645161	90.322580645161	4	33	mm	90.322580645161	1	       141
Frame#	Time	Sacral			L.Shoulder			Chest			R.Shoulder			Neck			R.ASIS			L.ASIS			R.Thigh.Superior			R.Thigh.Lateral			R.Thigh.Inferior			R.Patella			L.Thigh.Superior			L.Thigh.Lateral			L.Thigh.Inferior			L.Patella			L.Shank.Superior			L.Shank.Lateral			L.Shank.Inferior			R.Shank.Superior			R.Shank.Lateral			R.Shank.Inferior			R.Heel			R.Midfoot.Superior			R.Midfoot.Lateral			R.Toe			L.Heel			L.Midfoot.Lateral			L.Midfoot.Superior			L.Toe			L.Elbow			L.Wrist			R.Elbow			R.Wrist			
		X1	Y1	Z1	X2	Y2	Z2	X3	Y3	Z3	X4	Y4	Z4	X5	Y5	Z5	X6	Y6	Z6	X7	Y7	Z7	X8	Y8	Z8	X9	Y9	Z9	X10	Y10	Z10	X11	Y11	Z11	X12	Y12	Z12	X13	Y13	Z13	X14	Y14	Z14	X15	Y15	Z15	X16	Y16	Z16	X17	Y17	Z17	X18	Y18	Z18	X19	Y19	Z19	X20	Y20	Z20	X21	Y21	Z21	X22	Y22	Z22	X23	Y23	Z23	X24	Y24	Z24	X25	Y25	Z25	X26	Y26	Z26	X27	Y27	Z27	X28	Y28	Z28	X29	Y29	Z29	X30	Y30	Z30	X31	Y31	Z31	X32	Y32	Z32	X33	Y33	Z33	

1	49.870000000000	706.310994496296	1018.743093368011	443.551402923035	927.469405231832	1428.786687465278	261.024702423108	1021.821527477246	1352.375406044346	424.923740310882	942.133238619172	1438.233960049905	595.572250334620	928.085751162898	1490.946302842148	414.706744684248	924.296293780519	942.392454606091	567.746837619149	925.691317369191	957.823352935340	293.923347446115	1001.349061105568	771.745242698359	539.482772220054	958.584442387132	652.434816746312	612.991607163300	1048.815890878938	610.551836721543	535.112806491507	1062.412460733940	493.929106003714	557.506430146570	974.297088943147	753.860398851740	321.287948960056	888.309022365180	636.729574643720	264.070807528985	974.709791489042	561.235454864503	329.065353147129	976.936697852953	490.903192614058	339.325090790666	949.326644249185	418.645717239132	330.665718480346	860.347280963583	304.775848503393	277.937753845087	908.187276384535	193.384532485007	350.113820733780	977.221193420074	426.459790280437	563.102848535287	849.477511434638	403.520848350165	619.302915191398	823.437577183905	296.993599264408	570.616827055234	618.742955328806	264.759204982064	535.696304424544	773.481712416712	177.790651818034	578.923794311615	664.014935249411	193.770515212457	609.106827649848	818.947367468191	56.329227790330	602.887450464529	778.027326280258	38.309044000221	390.472485449391	852.661147403873	35.395461886797	310.071713833818	935.566180913447	96.087148266621	338.317493870792	1064.683641028804	42.099483874371	310.601310725576	909.450171442179	1080.563635266545	135.660182119405	1070.307800039830	874.997029102858	165.779463283283	890.858780717821	1091.471509087821	713.093505302319	1026.831174873037	867.291520927997	693.509798624099	
2	49.881071428571	705.430441459115	1018.720384195420	442.428404674935	928.124711454462	1429.027420386964	260.951704980522	1021.526472324623	1352.291426729352	425.220140497837	940.971854218783	1437.844748010899	595.559081040113	927.880995774997	1490.918579560675	414.655881711885	923.456446558846	942.851795377251	567.670533843451	924.516276862194	957.293614001925	293.806681646023	1003.287939234797	775.734340268837	539.032800066843	963.665041381104	655.841552731101	612.948415257226	1054.604258752950	616.003376696932	534.802483362197	1071.438128677263	499.988218709316	557.271412658063	972.534948267525	752.777362076757	321.470557807421	885.901689806921	636.312257841616	264.012425967206	971.255657991590	560.112507295376	329.378026970791	972.787449099224	489.788676538387	339.775557195662	944.543223278373	417.687175611031	330.999304382542	854.767955484842	304.590887302299	277.980774320401	901.101670693090	192.832070348121	350.349093196952	988.138697945561	430.316088002910	562.953765061386	861.326957761937	403.504523019412	619.190688484013	838.496656648783	296.253852438470	570.432784630326	634.988417584870	257.288519767689	535.665887749417	792.595474496433	176.126530278135	579.131291049329	682.710972956865	188.050955039966	609.010366949732	842.076323962217	56.242671106730	603.000727801648	769.785732911394	38.288378541885	390.415070005416	844.495437776871	35.373779740520	310.017371640540	927.417247632183	96.005330914787	338.377585627421	1056.560166895314	41.937694259642	310.567658267281	918.559039076933	1082.151384218770	133.387312658494	1090.169013181144	888.256713115313	166.903064315709	884.873523494245	1091.899584074504	713.229441106236	1000.232819239924	859.127574985348	699.088500005908	
3	49.892142857143	704.588389503696	1018.704881909662	441.342474196643	928.785328462127	1429.284694220263	260.905868977554	1021.250582452335	1352.227199246816	425.537507454224	939.837329495361	1437.474994803754	595.572170242589	927.685682427372	1490.905684997666	414.635668146731	922.630064209182	943.299279314651	567.604971511490	923.476837243734	956.834480380514	293.700770825951	1005.172888566515	779.645213919328	538.647861203220	968.617870888908	659.198860167503	612.935710690412	1060.230378417605	621.355064100223	534.528431818046	1080.211018717885	505.968081992669	557.095165133086	970.771544907690	751.710808946332	321.703253652514	883.496175961762	635.911524093340	263.960133680683	967.797693955848	559.003243659284	329.695323564460	968.633878361790	488.690439801116	340.221887183945	939.768707917638	416.750089056718	331.325706130503	849.220062910538	304.409008611224	278.025398791024	894.082204662380	192.294437440162	350.579439358375	998.851585306714	434.098051840538	562.847121255465	872.993117184395	403.350412923766	619.109909453946	853.420953390977	295.387939901808	570.273957141376	651.117807347163	249.645405654912	535.655453722775	811.604527137316	174.324056263308	579.354707020642	701.304592280114	182.177597644479	608.941270280777	865.124079863587	56.033899096944	603.125886554112	761.653806365108	38.267595343766	390.358947629069	836.436042191528	35.351510385153	309.964120229353	919.376258130232	95.924982899260	338.434245816663	1048.542500745750	41.781306692721	310.534123468670	927.465717149535	1083.766510716014	131.193934606719	1109.571721905858	901.518427660171	168.052283911078	878.867425792805	1092.359120709883	713.382391846845	974.071701311561	851.506594535764	704.529611540697	
4	49.903214285714	703.831103262607	1018.706611339926	440.335550643623	929.469586220459	1429.575610033184	260.925615738059	1021.018478000995	1352.201962342447	425.910916207642	938.755886803394	1437.147040484209	595.646753051867	927.515496520362	1490.922903087735	414.684698215848	921.842479641484	943.723684064126	567.572234294725	922.688617793974	956.490278668131	293.627385667109	1006.941766872524	783.381706767210	538.389513003609	973.286588636325	662.426902968302	612.987565800071	1065.510586737140	626.472663245976	534.340669081054	1088.469961705603	511.783166241104	557.038579173301	968.983074967885	750.660204956527	322.039683434268	881.049812650483	635.545056453421	263.923898416225	964.264852213682	557.909592083499	330.028420881019	964.390741515035	487.616664405880	340.665136140505	934.934780008750	415.851788786759	331.641198256125	843.651144296975	304.236227793054	278.074490948677	887.103996794061	191.785902719040	350.801798962674	1009.193490694347	437.726222142486	562.831514730645	884.415446016235	402.859870270328	619.116956240426	868.270006810252	294.238563826794	570.188995302903	667.343018885231	241.500606414962	535.725786712575	830.702810083021	172.244861272916	579.641058645891	720.047342636997	175.907881012435	608.957163818887	888.362609779948	55.680218093021	603.290900658812	753.639170957676	38.251255384330	390.304737615734	828.486974161256	35.331021231211	309.913684375110	911.449468834243	95.848117754323	338.484975472460	1040.633052193426	41.634644206036	310.501452488573	936.042612932843	1085.455423006113	129.154204825778	1128.160483493283	914.950580897791	169.276829017097	872.721170622155	1092.950325637934	713.587370395539	948.602390959357	844.976328589260	709.706535432657	
